<svg width="493" height="297" xmlns="http://www.w3.org/2000/svg" xmlns:xlink="http://www.w3.org/1999/xlink" xml:space="preserve" overflow="hidden"><g><g><path d="M0 0 493 0 493 296.767 0 296.767 0 0Z" fill="#FFFFFF" fill-rule="nonzero" fill-opacity="1" transform="scale(1 1.00078)"/><path d="M69.5054 131.153C60.189 135.146 51.482 126.776 50.0577 112.46" stroke="#848484" stroke-width="0.690923" stroke-linecap="round" stroke-linejoin="miter" stroke-miterlimit="10" stroke-opacity="1" fill="none" fill-rule="nonzero" transform="matrix(1 0 0 1.00078 143.637 142.682)"/><text fill="#000000" fill-opacity="1" font-family="Helvetica,Helvetica_MSFontService,sans-serif" font-style="normal" font-variant="normal" font-weight="400" font-stretch="normal" font-size="10" text-anchor="start" direction="ltr" writing-mode="lr-tb" unicode-bidi="normal" text-decoration="none" transform="matrix(0.345461 0 0 0.345732 199.367 273)">9</text><path d="M85.3065 119.683C92.0492 106.708 105.724 102.997 115.85 111.395" stroke="#848484" stroke-width="0.690923" stroke-linecap="round" stroke-linejoin="miter" stroke-miterlimit="10" stroke-opacity="1" fill="none" fill-rule="nonzero" transform="matrix(1 0 0 1.00078 143.637 142.682)"/><text fill="#000000" fill-opacity="1" font-family="Helvetica,Helvetica_MSFontService,sans-serif" font-style="normal" font-variant="normal" font-weight="400" font-stretch="normal" font-size="10" text-anchor="start" direction="ltr" writing-mode="lr-tb" unicode-bidi="normal" text-decoration="none" transform="matrix(0.345461 0 0 0.345732 241.854 252)">9</text><path d="M59.6943 112.46 71.9264 119.683" stroke="#848484" stroke-width="0.690923" stroke-linecap="round" stroke-linejoin="miter" stroke-miterlimit="10" stroke-opacity="1" fill="none" fill-rule="nonzero" transform="matrix(1 0 0 1.00078 143.637 142.682)"/><text fill="#000000" fill-opacity="1" font-family="Helvetica,Helvetica_MSFontService,sans-serif" font-style="normal" font-variant="normal" font-weight="400" font-stretch="normal" font-size="10" text-anchor="start" direction="ltr" writing-mode="lr-tb" unicode-bidi="normal" text-decoration="none" transform="matrix(0.345461 0 0 0.345732 208.355 260)">9</text><path d="M110.185 120.061 95.1197 123.108" stroke="#848484" stroke-width="0.690923" stroke-linecap="round" stroke-linejoin="miter" stroke-miterlimit="10" stroke-opacity="1" fill="none" fill-rule="nonzero" transform="matrix(1 0 0 1.00078 143.637 142.682)"/><text fill="#000000" fill-opacity="1" font-family="Helvetica,Helvetica_MSFontService,sans-serif" font-style="normal" font-variant="normal" font-weight="400" font-stretch="normal" font-size="10" text-anchor="start" direction="ltr" writing-mode="lr-tb" unicode-bidi="normal" text-decoration="none" transform="matrix(0.345461 0 0 0.345732 245.197 266)">9</text><path d="M23.915 73.5332 31.0285 48.2965" stroke="#848484" stroke-width="0.690923" stroke-linecap="round" stroke-linejoin="miter" stroke-miterlimit="10" stroke-opacity="1" fill="none" fill-rule="nonzero" transform="matrix(1 0 0 1.00078 143.637 142.682)"/><text fill="#000000" fill-opacity="1" font-family="Helvetica,Helvetica_MSFontService,sans-serif" font-style="normal" font-variant="normal" font-weight="400" font-stretch="normal" font-size="10" text-anchor="start" direction="ltr" writing-mode="lr-tb" unicode-bidi="normal" text-decoration="none" transform="matrix(0.345461 0 0 0.345732 170.016 205)">3</text><path d="M10.595 73.5505-1.25484 67.4009" stroke="#848484" stroke-width="0.690923" stroke-linecap="round" stroke-linejoin="miter" stroke-miterlimit="10" stroke-opacity="1" fill="none" fill-rule="nonzero" transform="matrix(1 0 0 1.00078 143.637 142.682)"/><text fill="#000000" fill-opacity="1" font-family="Helvetica,Helvetica_MSFontService,sans-serif" font-style="normal" font-variant="normal" font-weight="400" font-stretch="normal" font-size="10" text-anchor="start" direction="ltr" writing-mode="lr-tb" unicode-bidi="normal" text-decoration="none" transform="matrix(0.345461 0 0 0.345732 147.215 215)">6</text><path d="M35.1659 77.5253C45.576 75.8754 52.3612 86.1028 50.3209 100.369" stroke="#848484" stroke-width="0.690923" stroke-linecap="round" stroke-linejoin="miter" stroke-miterlimit="10" stroke-opacity="1" fill="none" fill-rule="nonzero" transform="matrix(1 0 0 1.00078 143.637 142.682)"/><text fill="#000000" fill-opacity="1" font-family="Helvetica,Helvetica_MSFontService,sans-serif" font-style="normal" font-variant="normal" font-weight="400" font-stretch="normal" font-size="10" text-anchor="start" direction="ltr" writing-mode="lr-tb" unicode-bidi="normal" text-decoration="none" transform="matrix(0.345461 0 0 0.345732 189.957 227)">9</text><path d="M43.3184 100.369 28.3487 85.6243" stroke="#848484" stroke-width="0.690923" stroke-linecap="round" stroke-linejoin="miter" stroke-miterlimit="10" stroke-opacity="1" fill="none" fill-rule="nonzero" transform="matrix(1 0 0 1.00078 143.637 142.682)"/><text fill="#000000" fill-opacity="1" font-family="Helvetica,Helvetica_MSFontService,sans-serif" font-style="normal" font-variant="normal" font-weight="400" font-stretch="normal" font-size="10" text-anchor="start" direction="ltr" writing-mode="lr-tb" unicode-bidi="normal" text-decoration="none" transform="matrix(0.345461 0 0 0.345732 178.378 237)">9</text><path d="M155.74 103.226C154.355 117.694 145.508 126.347 135.979 122.553" stroke="#848484" stroke-width="0.690923" stroke-linecap="round" stroke-linejoin="miter" stroke-miterlimit="10" stroke-opacity="1" fill="none" fill-rule="nonzero" transform="matrix(1 0 0 1.00078 143.637 142.682)"/><text fill="#000000" fill-opacity="1" font-family="Helvetica,Helvetica_MSFontService,sans-serif" font-style="normal" font-variant="normal" font-weight="400" font-stretch="normal" font-size="10" text-anchor="start" direction="ltr" writing-mode="lr-tb" unicode-bidi="normal" text-decoration="none" transform="matrix(0.345461 0 0 0.345732 291.458 264)">9</text><path d="M133.04 111.395 146.419 103.226" stroke="#848484" stroke-width="0.690923" stroke-linecap="round" stroke-linejoin="miter" stroke-miterlimit="10" stroke-opacity="1" fill="none" fill-rule="nonzero" transform="matrix(1 0 0 1.00078 143.637 142.682)"/><text fill="#000000" fill-opacity="1" font-family="Helvetica,Helvetica_MSFontService,sans-serif" font-style="normal" font-variant="normal" font-weight="400" font-stretch="normal" font-size="10" text-anchor="start" direction="ltr" writing-mode="lr-tb" unicode-bidi="normal" text-decoration="none" transform="matrix(0.345461 0 0 0.345732 282.274 251)">9</text><path d="M132.998-70.821 131.724-98.0378" stroke="#848484" stroke-width="0.690923" stroke-linecap="round" stroke-linejoin="miter" stroke-miterlimit="10" stroke-opacity="1" fill="none" fill-rule="nonzero" transform="matrix(1 0 0 1.00078 143.637 142.682)"/><text fill="#000000" fill-opacity="1" font-family="Helvetica,Helvetica_MSFontService,sans-serif" font-style="normal" font-variant="normal" font-weight="400" font-stretch="normal" font-size="10" text-anchor="start" direction="ltr" writing-mode="lr-tb" unicode-bidi="normal" text-decoration="none" transform="matrix(0.345461 0 0 0.345732 274.906 59)">6</text><path d="M158.931 91.1344C165.711 75.445 181.146 66.4782 193.408 71.1067" stroke="#848484" stroke-width="0.690923" stroke-linecap="round" stroke-linejoin="miter" stroke-miterlimit="10" stroke-opacity="1" fill="none" fill-rule="nonzero" transform="matrix(1 0 0 1.00078 143.637 142.682)"/><text fill="#000000" fill-opacity="1" font-family="Helvetica,Helvetica_MSFontService,sans-serif" font-style="normal" font-variant="normal" font-weight="400" font-stretch="normal" font-size="10" text-anchor="start" direction="ltr" writing-mode="lr-tb" unicode-bidi="normal" text-decoration="none" transform="matrix(0.345461 0 0 0.345732 316.658 218)">4</text><path d="M217.779 46.3678C226.975 54.8147 227.121 65.3851 218.106 69.9777" stroke="#848484" stroke-width="0.690923" stroke-linecap="round" stroke-linejoin="miter" stroke-miterlimit="10" stroke-opacity="1" fill="none" fill-rule="nonzero" transform="matrix(1 0 0 1.00078 143.637 142.682)"/><text fill="#000000" fill-opacity="1" font-family="Helvetica,Helvetica_MSFontService,sans-serif" font-style="normal" font-variant="normal" font-weight="400" font-stretch="normal" font-size="10" text-anchor="start" direction="ltr" writing-mode="lr-tb" unicode-bidi="normal" text-decoration="none" transform="matrix(0.345461 0 0 0.345732 367.314 204)">6</text><path d="M207.147 69.9355 210.37 46.3678" stroke="#848484" stroke-width="0.690923" stroke-linecap="round" stroke-linejoin="miter" stroke-miterlimit="10" stroke-opacity="1" fill="none" fill-rule="nonzero" transform="matrix(1 0 0 1.00078 143.637 142.682)"/><text fill="#000000" fill-opacity="1" font-family="Helvetica,Helvetica_MSFontService,sans-serif" font-style="normal" font-variant="normal" font-weight="400" font-stretch="normal" font-size="10" text-anchor="start" direction="ltr" writing-mode="lr-tb" unicode-bidi="normal" text-decoration="none" transform="matrix(0.345461 0 0 0.345732 351.305 202)">6</text><path d="M193.626 81.3631 169.014 91.7981" stroke="#848484" stroke-width="0.690923" stroke-linecap="round" stroke-linejoin="miter" stroke-miterlimit="10" stroke-opacity="1" fill="none" fill-rule="nonzero" transform="matrix(1 0 0 1.00078 143.637 142.682)"/><text fill="#000000" fill-opacity="1" font-family="Helvetica,Helvetica_MSFontService,sans-serif" font-style="normal" font-variant="normal" font-weight="400" font-stretch="normal" font-size="10" text-anchor="start" direction="ltr" writing-mode="lr-tb" unicode-bidi="normal" text-decoration="none" transform="matrix(0.345461 0 0 0.345732 323.864 231)">4</text><path d="M187.438 1.72667C200.874 2.42596 211.553 16.9991 211.289 34.2766" stroke="#848484" stroke-width="0.690923" stroke-linecap="round" stroke-linejoin="miter" stroke-miterlimit="10" stroke-opacity="1" fill="none" fill-rule="nonzero" transform="matrix(1 0 0 1.00078 143.637 142.682)"/><text fill="#000000" fill-opacity="1" font-family="Helvetica,Helvetica_MSFontService,sans-serif" font-style="normal" font-variant="normal" font-weight="400" font-stretch="normal" font-size="10" text-anchor="start" direction="ltr" writing-mode="lr-tb" unicode-bidi="normal" text-decoration="none" transform="matrix(0.345461 0 0 0.345732 347.045 156)">6</text><path d="M205.545 34.2766 180.136 7.09802" stroke="#848484" stroke-width="0.690923" stroke-linecap="round" stroke-linejoin="miter" stroke-miterlimit="10" stroke-opacity="1" fill="none" fill-rule="nonzero" transform="matrix(1 0 0 1.00078 143.637 142.682)"/><text fill="#000000" fill-opacity="1" font-family="Helvetica,Helvetica_MSFontService,sans-serif" font-style="normal" font-variant="normal" font-weight="400" font-stretch="normal" font-size="10" text-anchor="start" direction="ltr" writing-mode="lr-tb" unicode-bidi="normal" text-decoration="none" transform="matrix(0.345461 0 0 0.345732 335.385 165)">6</text><path d="M120.339-69.437 101.112-76.3625" stroke="#848484" stroke-width="0.690923" stroke-linecap="round" stroke-linejoin="miter" stroke-miterlimit="10" stroke-opacity="1" fill="none" fill-rule="nonzero" transform="matrix(1 0 0 1.00078 143.637 142.682)"/><text fill="#000000" fill-opacity="1" font-family="Helvetica,Helvetica_MSFontService,sans-serif" font-style="normal" font-variant="normal" font-weight="400" font-stretch="normal" font-size="10" text-anchor="start" direction="ltr" writing-mode="lr-tb" unicode-bidi="normal" text-decoration="none" transform="matrix(0.345461 0 0 0.345732 252.178 71)">21</text><path d="M144.377-34.0087C133.665-33.7254 127.979-44.7932 131.677-58.7298" stroke="#848484" stroke-width="0.690923" stroke-linecap="round" stroke-linejoin="miter" stroke-miterlimit="10" stroke-opacity="1" fill="none" fill-rule="nonzero" transform="matrix(1 0 0 1.00078 143.637 142.682)"/><text fill="#000000" fill-opacity="1" font-family="Helvetica,Helvetica_MSFontService,sans-serif" font-style="normal" font-variant="normal" font-weight="400" font-stretch="normal" font-size="10" text-anchor="start" direction="ltr" writing-mode="lr-tb" unicode-bidi="normal" text-decoration="none" transform="matrix(0.345461 0 0 0.345732 275.168 103)">9</text><path d="M138.06-58.7298 152.553-40.3969" stroke="#848484" stroke-width="0.690923" stroke-linecap="round" stroke-linejoin="miter" stroke-miterlimit="10" stroke-opacity="1" fill="none" fill-rule="nonzero" transform="matrix(1 0 0 1.00078 143.637 142.682)"/><text fill="#000000" fill-opacity="1" font-family="Helvetica,Helvetica_MSFontService,sans-serif" font-style="normal" font-variant="normal" font-weight="400" font-stretch="normal" font-size="10" text-anchor="start" direction="ltr" writing-mode="lr-tb" unicode-bidi="normal" text-decoration="none" transform="matrix(0.345461 0 0 0.345732 287.851 94)">9</text><path d="M154.15 91.1344 144.714 64.832" stroke="#848484" stroke-width="0.690923" stroke-linecap="round" stroke-linejoin="miter" stroke-miterlimit="10" stroke-opacity="1" fill="none" fill-rule="nonzero" transform="matrix(1 0 0 1.00078 143.637 142.682)"/><text fill="#000000" fill-opacity="1" font-family="Helvetica,Helvetica_MSFontService,sans-serif" font-style="normal" font-variant="normal" font-weight="400" font-stretch="normal" font-size="10" text-anchor="start" direction="ltr" writing-mode="lr-tb" unicode-bidi="normal" text-decoration="none" transform="matrix(0.345461 0 0 0.345732 291.977 222)">3</text><path d="M155.5 63.1141C165.618 66.4944 167.68 79.0391 160.105 91.1344" stroke="#848484" stroke-width="0.690923" stroke-linecap="round" stroke-linejoin="miter" stroke-miterlimit="10" stroke-opacity="1" fill="none" fill-rule="nonzero" transform="matrix(1 0 0 1.00078 143.637 142.682)"/><text fill="#000000" fill-opacity="1" font-family="Helvetica,Helvetica_MSFontService,sans-serif" font-style="normal" font-variant="normal" font-weight="400" font-stretch="normal" font-size="10" text-anchor="start" direction="ltr" writing-mode="lr-tb" unicode-bidi="normal" text-decoration="none" transform="matrix(0.345461 0 0 0.345732 306.982 218)">3</text><path d="M160.261-28.3058 171.555-4.99313" stroke="#848484" stroke-width="0.690923" stroke-linecap="round" stroke-linejoin="miter" stroke-miterlimit="10" stroke-opacity="1" fill="none" fill-rule="nonzero" transform="matrix(1 0 0 1.00078 143.637 142.682)"/><text fill="#000000" fill-opacity="1" font-family="Helvetica,Helvetica_MSFontService,sans-serif" font-style="normal" font-variant="normal" font-weight="400" font-stretch="normal" font-size="10" text-anchor="start" direction="ltr" writing-mode="lr-tb" unicode-bidi="normal" text-decoration="none" transform="matrix(0.345461 0 0 0.345732 308.452 127)">8</text><path d="M161.529-1.54942C151.069-3.65011 147.814-15.6293 154.258-28.3058" stroke="#848484" stroke-width="0.690923" stroke-linecap="round" stroke-linejoin="miter" stroke-miterlimit="10" stroke-opacity="1" fill="none" fill-rule="nonzero" transform="matrix(1 0 0 1.00078 143.637 142.682)"/><text fill="#000000" fill-opacity="1" font-family="Helvetica,Helvetica_MSFontService,sans-serif" font-style="normal" font-variant="normal" font-weight="400" font-stretch="normal" font-size="10" text-anchor="start" direction="ltr" writing-mode="lr-tb" unicode-bidi="normal" text-decoration="none" transform="matrix(0.345461 0 0 0.345732 294.099 133)">8</text><path d="M156.949 23.6711C149.951 12.9676 152.002 3.46266 161.529 2.44129" stroke="#848484" stroke-width="0.690923" stroke-linecap="round" stroke-linejoin="miter" stroke-miterlimit="10" stroke-opacity="1" fill="none" fill-rule="nonzero" transform="matrix(1 0 0 1.00078 143.637 142.682)"/><text fill="#000000" fill-opacity="1" font-family="Helvetica,Helvetica_MSFontService,sans-serif" font-style="normal" font-variant="normal" font-weight="400" font-stretch="normal" font-size="10" text-anchor="start" direction="ltr" writing-mode="lr-tb" unicode-bidi="normal" text-decoration="none" transform="matrix(0.345461 0 0 0.345732 295.587 153)">2</text><path d="M171.619 7.09802 163.767 23.6711" stroke="#848484" stroke-width="0.690923" stroke-linecap="round" stroke-linejoin="miter" stroke-miterlimit="10" stroke-opacity="1" fill="none" fill-rule="nonzero" transform="matrix(1 0 0 1.00078 143.637 142.682)"/><text fill="#000000" fill-opacity="1" font-family="Helvetica,Helvetica_MSFontService,sans-serif" font-style="normal" font-variant="normal" font-weight="400" font-stretch="normal" font-size="10" text-anchor="start" direction="ltr" writing-mode="lr-tb" unicode-bidi="normal" text-decoration="none" transform="matrix(0.345461 0 0 0.345732 310.237 159)">2</text><path d="M163.615 35.7622C169.147 48.091 165.514 58.2683 155.5 58.4942" stroke="#848484" stroke-width="0.690923" stroke-linecap="round" stroke-linejoin="miter" stroke-miterlimit="10" stroke-opacity="1" fill="none" fill-rule="nonzero" transform="matrix(1 0 0 1.00078 143.637 142.682)"/><text fill="#000000" fill-opacity="1" font-family="Helvetica,Helvetica_MSFontService,sans-serif" font-style="normal" font-variant="normal" font-weight="400" font-stretch="normal" font-size="10" text-anchor="start" direction="ltr" writing-mode="lr-tb" unicode-bidi="normal" text-decoration="none" transform="matrix(0.345461 0 0 0.345732 307.932 196)">2</text><path d="M146.363 52.7409 157.084 35.7622" stroke="#848484" stroke-width="0.690923" stroke-linecap="round" stroke-linejoin="miter" stroke-miterlimit="10" stroke-opacity="1" fill="none" fill-rule="nonzero" transform="matrix(1 0 0 1.00078 143.637 142.682)"/><text fill="#000000" fill-opacity="1" font-family="Helvetica,Helvetica_MSFontService,sans-serif" font-style="normal" font-variant="normal" font-weight="400" font-stretch="normal" font-size="10" text-anchor="start" direction="ltr" writing-mode="lr-tb" unicode-bidi="normal" text-decoration="none" transform="matrix(0.345461 0 0 0.345732 294.268 188)">2</text><path d="M69.2101 121.194 69.2101 130.263C69.2101 131.098 69.8865 131.774 70.7215 131.774L93.6083 131.774C94.4429 131.774 95.1197 131.098 95.1197 130.263L95.1197 121.194C95.1197 120.36 94.4429 119.683 93.6083 119.683L70.7215 119.683C69.8865 119.683 69.2101 120.36 69.2101 121.194Z" fill="#89D0F5" fill-rule="nonzero" fill-opacity="1" transform="matrix(1 0 0 1.00078 143.637 142.682)"/><text fill="#000000" fill-opacity="1" font-family="Helvetica,Helvetica_MSFontService,sans-serif" font-style="normal" font-variant="normal" font-weight="400" font-stretch="normal" font-size="12" text-anchor="start" direction="ltr" writing-mode="lr-tb" unicode-bidi="normal" text-decoration="none" transform="matrix(0.345461 0 0 0.345732 185.355 270)">WP_126178126.1_ATP-binding_protein</text><path d="M9.25612 75.0446 9.25612 84.1129C9.25612 84.9476 9.93281 85.6243 10.7675 85.6243L33.6543 85.6243C34.4891 85.6243 35.1659 84.9476 35.1659 84.1129L35.1659 75.0446C35.1659 74.2099 34.4891 73.5332 33.6543 73.5332L10.7675 73.5332C9.93281 73.5332 9.25612 74.2099 9.25612 75.0446Z" fill="#89D0F5" fill-rule="nonzero" fill-opacity="1" transform="matrix(1 0 0 1.00078 143.637 142.682)"/><text fill="#000000" fill-opacity="1" font-family="Helvetica,Helvetica_MSFontService,sans-serif" font-style="normal" font-variant="normal" font-weight="400" font-stretch="normal" font-size="12" text-anchor="start" direction="ltr" writing-mode="lr-tb" unicode-bidi="normal" text-decoration="none" transform="matrix(0.345461 0 0 0.345732 125.816 224)">WP_172957230.1_hypothetical_protein</text><path d="M110.185 112.906 110.185 121.974C110.185 122.809 110.862 123.486 111.696 123.486L134.583 123.486C135.418 123.486 136.095 122.809 136.095 121.974L136.095 112.906C136.095 112.071 135.418 111.395 134.583 111.395L111.696 111.395C110.862 111.395 110.185 112.071 110.185 112.906Z" fill="#89D0F5" fill-rule="nonzero" fill-opacity="1" transform="matrix(1 0 0 1.00078 143.637 142.682)"/><text fill="#000000" fill-opacity="1" font-family="Helvetica,Helvetica_MSFontService,sans-serif" font-style="normal" font-variant="normal" font-weight="400" font-stretch="normal" font-size="12" text-anchor="start" direction="ltr" writing-mode="lr-tb" unicode-bidi="normal" text-decoration="none" transform="matrix(0.345461 0 0 0.345732 226.745 262)">WP_126178127.1_hypothetical_protein</text><path d="M118.487-108.618 118.487-99.5492C118.487-98.7146 119.163-98.0378 119.998-98.0378L142.885-98.0378C143.72-98.0378 144.396-98.7146 144.396-99.5492L144.396-108.618C144.396-109.452 143.72-110.129 142.885-110.129L119.998-110.129C119.163-110.129 118.487-109.452 118.487-108.618Z" fill="#89D0F5" fill-rule="nonzero" fill-opacity="1" transform="matrix(1 0 0 1.00078 143.637 142.682)"/><text fill="#000000" fill-opacity="1" font-family="Helvetica,Helvetica_MSFontService,sans-serif" font-style="normal" font-variant="normal" font-weight="400" font-stretch="normal" font-size="12" text-anchor="start" direction="ltr" writing-mode="lr-tb" unicode-bidi="normal" text-decoration="none" transform="matrix(0.345461 0 0 0.345732 235.047 40)">WP_126178343.1_hypothetical_protein</text><path d="M193.366 71.4469 193.366 80.5153C193.366 81.3499 194.042 82.0267 194.877 82.0267L217.764 82.0267C218.599 82.0267 219.275 81.3499 219.275 80.5153L219.275 71.4469C219.275 70.6123 218.599 69.9355 217.764 69.9355L194.877 69.9355C194.042 69.9355 193.366 70.6123 193.366 71.4469Z" fill="#89D0F5" fill-rule="nonzero" fill-opacity="1" transform="matrix(1 0 0 1.00078 143.637 142.682)"/><text fill="#000000" fill-opacity="1" font-family="Helvetica,Helvetica_MSFontService,sans-serif" font-style="normal" font-variant="normal" font-weight="400" font-stretch="normal" font-size="12" text-anchor="start" direction="ltr" writing-mode="lr-tb" unicode-bidi="normal" text-decoration="none" transform="matrix(0.345461 0 0 0.345732 309.926 220)">WP_126178348.1_hypothetical_protein</text><path d="M198.242 35.7881 198.242 44.8564C198.242 45.6911 198.919 46.3678 199.754 46.3678L222.641 46.3678C223.475 46.3678 224.152 45.6911 224.152 44.8564L224.152 35.7881C224.152 34.9534 223.475 34.2766 222.641 34.2766L199.754 34.2766C198.919 34.2766 198.242 34.9534 198.242 35.7881Z" fill="#89D0F5" fill-rule="nonzero" fill-opacity="1" transform="matrix(1 0 0 1.00078 143.637 142.682)"/><text fill="#000000" fill-opacity="1" font-family="Helvetica,Helvetica_MSFontService,sans-serif" font-style="normal" font-variant="normal" font-weight="400" font-stretch="normal" font-size="12" text-anchor="start" direction="ltr" writing-mode="lr-tb" unicode-bidi="normal" text-decoration="none" transform="matrix(0.345461 0 0 0.345732 314.802 185)">WP_126178347.1_hypothetical_protein</text><path d="M75.2152-85.5583 75.2152-76.49C75.2152-75.6553 75.8916-74.9786 76.7266-74.9786L99.6134-74.9786C100.448-74.9786 101.125-75.6553 101.125-76.49L101.125-85.5583C101.125-86.393 100.448-87.0697 99.6134-87.0697L76.7266-87.0697C75.8916-87.0697 75.2152-86.393 75.2152-85.5583Z" fill="#89D0F5" fill-rule="nonzero" fill-opacity="1" transform="matrix(1 0 0 1.00078 143.637 142.682)"/><text fill="#000000" fill-opacity="1" font-family="Helvetica,Helvetica_MSFontService,sans-serif" font-style="normal" font-variant="normal" font-weight="400" font-stretch="normal" font-size="12" text-anchor="start" direction="ltr" writing-mode="lr-tb" unicode-bidi="normal" text-decoration="none" transform="matrix(0.345461 0 0 0.345732 191.775 63)">WP_126165348.1_hypothetical_protein</text><path d="M120.326-69.3096 120.326-60.2412C120.326-59.4066 121.003-58.7298 121.838-58.7298L144.724-58.7298C145.559-58.7298 146.236-59.4066 146.236-60.2412L146.236-69.3096C146.236-70.1442 145.559-70.821 144.724-70.821L121.838-70.821C121.003-70.821 120.326-70.1442 120.326-69.3096Z" fill="#89D0F5" fill-rule="nonzero" fill-opacity="1" transform="matrix(1 0 0 1.00078 143.637 142.682)"/><text fill="#000000" fill-opacity="1" font-family="Helvetica,Helvetica_MSFontService,sans-serif" font-style="normal" font-variant="normal" font-weight="400" font-stretch="normal" font-size="12" text-anchor="start" direction="ltr" writing-mode="lr-tb" unicode-bidi="normal" text-decoration="none" transform="matrix(0.345461 0 0 0.345732 236.887 79)">WP_038070144.1_hypothetical_protein</text><path d="M143.364 92.6458 143.364 101.714C143.364 102.549 144.041 103.226 144.876 103.226L167.763 103.226C168.597 103.226 169.274 102.549 169.274 101.714L169.274 92.6458C169.274 91.8112 168.597 91.1344 167.763 91.1344L144.876 91.1344C144.041 91.1344 143.364 91.8112 143.364 92.6458Z" fill="#89D0F5" fill-rule="nonzero" fill-opacity="1" transform="matrix(1 0 0 1.00078 143.637 142.682)"/><text fill="#000000" fill-opacity="1" font-family="Helvetica,Helvetica_MSFontService,sans-serif" font-style="normal" font-variant="normal" font-weight="400" font-stretch="normal" font-size="12" text-anchor="start" direction="ltr" writing-mode="lr-tb" unicode-bidi="normal" text-decoration="none" transform="matrix(0.345461 0 0 0.345732 244.938 242)">extdb:thermophilus791_002013_hypothetical_protein</text><path d="M144.377-38.8855 144.377-29.8172C144.377-28.9824 145.053-28.3058 145.888-28.3058L168.775-28.3058C169.61-28.3058 170.287-28.9824 170.287-29.8172L170.287-38.8855C170.287-39.7201 169.61-40.3969 168.775-40.3969L145.888-40.3969C145.053-40.3969 144.377-39.7201 144.377-38.8855Z" fill="#89D0F5" fill-rule="nonzero" fill-opacity="1" transform="matrix(1 0 0 1.00078 143.637 142.682)"/><text fill="#000000" fill-opacity="1" font-family="Helvetica,Helvetica_MSFontService,sans-serif" font-style="normal" font-variant="normal" font-weight="400" font-stretch="normal" font-size="12" text-anchor="start" direction="ltr" writing-mode="lr-tb" unicode-bidi="normal" text-decoration="none" transform="matrix(0.345461 0 0 0.345732 260.937 110)">WP_126178345.1_hypothetical_protein</text><path d="M161.529-3.48173 161.529 5.58663C161.529 6.42133 162.205 7.09802 163.04 7.09802L185.927 7.09802C186.762 7.09802 187.438 6.42133 187.438 5.58663L187.438-3.48173C187.438-4.31647 186.762-4.99313 185.927-4.99313L163.04-4.99313C162.205-4.99313 161.529-4.31647 161.529-3.48173Z" fill="#89D0F5" fill-rule="nonzero" fill-opacity="1" transform="matrix(1 0 0 1.00078 143.637 142.682)"/><text fill="#000000" fill-opacity="1" font-family="Helvetica,Helvetica_MSFontService,sans-serif" font-style="normal" font-variant="normal" font-weight="400" font-stretch="normal" font-size="12" text-anchor="start" direction="ltr" writing-mode="lr-tb" unicode-bidi="normal" text-decoration="none" transform="matrix(0.345461 0 0 0.345732 278.089 145)">WP_126178346.1_hypothetical_protein</text><path d="M36.5014 101.881 36.5014 110.949C36.5014 111.784 37.1782 112.46 38.0128 112.46L60.8997 112.46C61.7343 112.46 62.4111 111.784 62.4111 110.949L62.4111 101.881C62.4111 101.046 61.7343 100.369 60.8997 100.369L38.0128 100.369C37.1782 100.369 36.5014 101.046 36.5014 101.881Z" fill="#89D0F5" fill-rule="nonzero" fill-opacity="1" transform="matrix(1 0 0 1.00078 143.637 142.682)"/><text fill="#000000" fill-opacity="1" font-family="Helvetica,Helvetica_MSFontService,sans-serif" font-style="normal" font-variant="normal" font-weight="400" font-stretch="normal" font-size="12" text-anchor="start" direction="ltr" writing-mode="lr-tb" unicode-bidi="normal" text-decoration="none" transform="matrix(0.345461 0 0 0.345732 153.061 251)">WP_126178125.1_hypothetical_protein</text><path d="M-25.8256 56.8388-25.8256 65.9071C-25.8256 66.7418-25.1489 67.4185-24.3142 67.4185L-1.42736 67.4185C-0.592642 67.4185 0.08403 66.7418 0.08403 65.9071L0.08403 56.8388C0.08403 56.0038-0.592642 55.3274-1.42736 55.3274L-24.3142 55.3274C-25.1489 55.3274-25.8256 56.0038-25.8256 56.8388Z" fill="#89D0F5" fill-rule="nonzero" fill-opacity="1" transform="matrix(1 0 0 1.00078 143.637 142.682)"/><text fill="#000000" fill-opacity="1" font-family="Helvetica,Helvetica_MSFontService,sans-serif" font-style="normal" font-variant="normal" font-weight="400" font-stretch="normal" font-size="12" text-anchor="start" direction="ltr" writing-mode="lr-tb" unicode-bidi="normal" text-decoration="none" transform="matrix(0.345461 0 0 0.345732 90.7348 206)">WP_126178124.1_hypothetical_protein</text><path d="M129.591 54.2523 129.591 63.3207C129.591 64.1553 130.268 64.832 131.102 64.832L153.989 64.832C154.824 64.832 155.5 64.1553 155.5 63.3207L155.5 54.2523C155.5 53.4177 154.824 52.7409 153.989 52.7409L131.102 52.7409C130.268 52.7409 129.591 53.4177 129.591 54.2523Z" fill="#89D0F5" fill-rule="nonzero" fill-opacity="1" transform="matrix(1 0 0 1.00078 143.637 142.682)"/><text fill="#000000" fill-opacity="1" font-family="Helvetica,Helvetica_MSFontService,sans-serif" font-style="normal" font-variant="normal" font-weight="400" font-stretch="normal" font-size="12" text-anchor="start" direction="ltr" writing-mode="lr-tb" unicode-bidi="normal" text-decoration="none" transform="matrix(0.345461 0 0 0.345732 246.151 203)">WP_126248557.1_hypothetical_protein</text><path d="M147.947 25.1825 147.947 34.2509C147.947 35.0857 148.624 35.7622 149.459 35.7622L172.346 35.7622C173.18 35.7622 173.857 35.0857 173.857 34.2509L173.857 25.1825C173.857 24.3478 173.18 23.6711 172.346 23.6711L149.459 23.6711C148.624 23.6711 147.947 24.3478 147.947 25.1825Z" fill="#89D0F5" fill-rule="nonzero" fill-opacity="1" transform="matrix(1 0 0 1.00078 143.637 142.682)"/><text fill="#000000" fill-opacity="1" font-family="Helvetica,Helvetica_MSFontService,sans-serif" font-style="normal" font-variant="normal" font-weight="400" font-stretch="normal" font-size="12" text-anchor="start" direction="ltr" writing-mode="lr-tb" unicode-bidi="normal" text-decoration="none" transform="matrix(0.345461 0 0 0.345732 264.507 174)">WP_156101098.1_hypothetical_protein</text><path d="M19.7778 37.7168 19.7778 46.7851C19.7778 47.6198 20.4545 48.2965 21.2892 48.2965L44.1759 48.2965C45.0109 48.2965 45.6873 47.6198 45.6873 46.7851L45.6873 37.7168C45.6873 36.8821 45.0109 36.2054 44.1759 36.2054L21.2892 36.2054C20.4545 36.2054 19.7778 36.8821 19.7778 37.7168Z" fill="#89D0F5" fill-rule="nonzero" fill-opacity="1" transform="matrix(1 0 0 1.00078 143.637 142.682)"/><text fill="#000000" fill-opacity="1" font-family="Helvetica,Helvetica_MSFontService,sans-serif" font-style="normal" font-variant="normal" font-weight="400" font-stretch="normal" font-size="12" text-anchor="start" direction="ltr" writing-mode="lr-tb" unicode-bidi="normal" text-decoration="none" transform="matrix(0.345461 0 0 0.345732 136.338 187)">WP_126248550.1_hypothetical_protein</text></g></g></svg>